<?xml version="1.0" encoding="UTF-8"?>
<svg id="Layer_1" data-name="Layer 1" xmlns="http://www.w3.org/2000/svg" viewBox="0 0 2659.87 586.37">
  <defs>
    <style>
      .cls-1, .cls-2 {
        stroke-width: 0px;
      }

      .cls-2 {
        fill: #00477f;
      }
    </style>
  </defs>
  <g>
    <path class="cls-1" d="M765.65,223.05V92.09h52.12c9.55,0,17.55,1.44,23.99,4.31,6.44,2.87,11.29,6.84,14.55,11.91,3.25,5.07,4.88,10.88,4.88,17.45,0,5.1-1.01,9.58-3.03,13.45s-4.81,7.03-8.35,9.49c-3.55,2.46-7.6,4.22-12.17,5.27v1.14c5.04.23,9.73,1.66,14.06,4.26,4.34,2.61,7.84,6.23,10.5,10.85,2.67,4.63,4,10.14,4,16.52,0,6.97-1.7,13.2-5.1,18.68-3.4,5.48-8.45,9.79-15.16,12.92-6.71,3.14-15.02,4.7-24.92,4.7h-55.37ZM792.45,146.94h21.8c3.87,0,7.29-.67,10.28-2.02,2.99-1.35,5.33-3.3,7.03-5.84,1.7-2.55,2.55-5.55,2.55-9.01,0-4.86-1.7-8.79-5.1-11.78-3.4-2.99-8.2-4.48-14.41-4.48h-22.15v33.13ZM792.45,201.17h23.64c7.68,0,13.34-1.51,17.01-4.53,3.66-3.02,5.49-7.08,5.49-12.17,0-3.69-.88-6.94-2.64-9.76s-4.28-5.01-7.56-6.59c-3.28-1.58-7.18-2.37-11.69-2.37h-24.26v35.42Z"/>
    <path class="cls-1" d="M883.51,223.05v-97.03h25.4v16.79h.88c1.76-5.92,4.69-10.38,8.79-13.4,4.1-3.02,8.96-4.53,14.59-4.53,1.41,0,2.87.06,4.39.18,1.52.12,2.84.29,3.96.53v23.2c-1.11-.35-2.77-.63-4.97-.83-2.2-.2-4.32-.31-6.37-.31-3.87,0-7.37.85-10.5,2.55-3.14,1.7-5.58,4.1-7.34,7.21-1.76,3.11-2.64,6.77-2.64,10.99v54.67h-26.19Z"/>
    <path class="cls-1" d="M980.89,224.9c-6.21,0-11.78-1.08-16.7-3.25s-8.79-5.41-11.6-9.71-4.22-9.65-4.22-16.04c0-5.45,1-9.99,2.99-13.62,1.99-3.63,4.72-6.56,8.17-8.79,3.46-2.23,7.4-3.91,11.82-5.05,4.42-1.14,9.07-1.95,13.93-2.42,5.68-.58,10.25-1.13,13.71-1.63,3.46-.5,5.98-1.27,7.56-2.33s2.37-2.64,2.37-4.75v-.44c0-2.69-.6-4.99-1.8-6.9-1.2-1.9-2.94-3.37-5.23-4.39-2.29-1.02-5.07-1.54-8.35-1.54s-6.26.51-8.75,1.54c-2.49,1.03-4.51,2.4-6.06,4.13-1.55,1.73-2.65,3.68-3.3,5.84l-24.17-3.08c1.35-5.86,3.92-10.87,7.73-15.03,3.81-4.16,8.67-7.34,14.59-9.54,5.92-2.2,12.66-3.3,20.21-3.3,5.51,0,10.74.65,15.69,1.93,4.95,1.29,9.36,3.28,13.23,5.98,3.87,2.7,6.9,6.11,9.1,10.24s3.3,9.07,3.3,14.81v65.48h-25.05v-13.54h-.79c-1.58,3.05-3.68,5.73-6.28,8.04-2.61,2.32-5.73,4.12-9.36,5.41-3.63,1.29-7.88,1.93-12.74,1.93ZM988.27,206.53c4.16,0,7.79-.82,10.9-2.46,3.1-1.64,5.54-3.84,7.29-6.59,1.76-2.75,2.64-5.86,2.64-9.32v-10.28c-.82.47-1.96.94-3.43,1.41-1.47.47-3.14.88-5.01,1.23-1.88.35-3.77.67-5.67.97-1.9.29-3.65.56-5.23.79-3.16.47-5.98,1.22-8.44,2.24-2.46,1.03-4.37,2.4-5.71,4.13-1.35,1.73-2.02,3.88-2.02,6.46s.63,4.54,1.89,6.24c1.26,1.7,2.99,2.99,5.19,3.87s4.73,1.32,7.6,1.32Z"/>
    <path class="cls-1" d="M1069.75,113.45c-4.04,0-7.49-1.32-10.33-3.96-2.84-2.64-4.26-5.86-4.26-9.67s1.42-7.03,4.26-9.67c2.84-2.64,6.28-3.96,10.33-3.96s7.47,1.32,10.28,3.96,4.22,5.86,4.22,9.67-1.41,7.03-4.22,9.67-6.24,3.96-10.28,3.96ZM1056.65,223.05v-97.03h26.19v97.03h-26.19Z"/>
    <path class="cls-1" d="M1130.66,167.33v55.72h-26.19v-97.03h24.96l.35,24.43h-2.2c2.64-8.2,6.61-14.56,11.91-19.07,5.3-4.51,12.11-6.77,20.43-6.77,6.74,0,12.63,1.47,17.67,4.39,5.04,2.93,8.93,7.15,11.69,12.66,2.75,5.51,4.13,12.13,4.13,19.86v61.52h-26.19v-56.87c0-6.15-1.55-10.94-4.66-14.37-3.11-3.43-7.44-5.14-13.01-5.14-3.69,0-6.96.81-9.8,2.42-2.84,1.61-5.07,3.94-6.68,6.99-1.61,3.05-2.42,6.8-2.42,11.25Z"/>
    <path class="cls-1" d="M1296.42,224.99c-9.02,0-16.82-1.63-23.38-4.88-6.56-3.25-11.6-7.65-15.12-13.18s-5.27-11.67-5.27-18.41c0-5.21,1-9.78,2.99-13.71,1.99-3.92,4.83-7.59,8.53-10.99,3.69-3.4,8.09-6.83,13.18-10.28l25.14-16.61c1.87-1.29,3.53-2.68,4.97-4.17,1.44-1.49,2.55-3.09,3.34-4.79.79-1.7,1.19-3.49,1.19-5.36,0-2.99-1.07-5.55-3.21-7.69-2.14-2.14-5.17-3.21-9.1-3.21-2.58,0-4.83.51-6.77,1.54-1.93,1.03-3.44,2.45-4.53,4.26-1.08,1.82-1.63,3.96-1.63,6.42,0,2.81.7,5.6,2.11,8.35,1.41,2.75,3.37,5.7,5.89,8.83,2.52,3.14,5.48,6.67,8.88,10.59l61.96,71.37h-27.77l-51.5-57.83c-3.75-4.34-7.33-8.64-10.72-12.92-3.4-4.28-6.17-8.76-8.31-13.45-2.14-4.69-3.21-9.76-3.21-15.21,0-6.27,1.46-11.91,4.39-16.92,2.93-5.01,7.06-8.96,12.39-11.87,5.33-2.9,11.54-4.35,18.63-4.35s12.98,1.39,18.02,4.17c5.04,2.78,8.93,6.49,11.69,11.12,2.75,4.63,4.13,9.81,4.13,15.56,0,3.93-.7,7.68-2.11,11.25-1.41,3.57-3.4,6.9-5.98,9.98-2.58,3.08-5.68,5.96-9.32,8.66l-26.72,19.25c-3.57,2.64-6.28,5.24-8.13,7.82-1.85,2.58-2.77,5.6-2.77,9.05s.8,6.15,2.42,8.61c1.61,2.46,3.85,4.38,6.72,5.76,2.87,1.38,6.15,2.07,9.84,2.07,4.8,0,9.48-1.08,14.02-3.25,4.54-2.17,8.66-5.21,12.35-9.14,3.69-3.92,6.64-8.58,8.83-13.97,2.2-5.39,3.3-11.31,3.3-17.75h21.97c0,7.73-.83,14.75-2.5,21.05-1.67,6.3-4.03,11.82-7.08,16.57-3.05,4.75-6.59,8.64-10.63,11.69l-6.68,4.39c-4.75,3.93-10.2,6.84-16.35,8.75s-12.19,2.86-18.11,2.86Z"/>
    <path class="cls-1" d="M1418.94,223.05V92.09h89.12v22.5h-62.23v31.29h57.48v22.06h-57.48v32.61h62.31v22.5h-89.21Z"/>
    <path class="cls-1" d="M1553.94,167.33v55.72h-26.19v-97.03h24.96l.35,24.43h-2.2c2.64-8.2,6.61-14.56,11.91-19.07,5.3-4.51,12.11-6.77,20.43-6.77,6.74,0,12.63,1.47,17.67,4.39,5.04,2.93,8.93,7.15,11.69,12.66,2.75,5.51,4.13,12.13,4.13,19.86v61.52h-26.19v-56.87c0-6.15-1.55-10.94-4.66-14.37-3.11-3.43-7.44-5.14-13.01-5.14-3.69,0-6.96.81-9.8,2.42-2.84,1.61-5.07,3.94-6.68,6.99-1.61,3.05-2.42,6.8-2.42,11.25Z"/>
    <path class="cls-1" d="M1674.26,224.72c-7.68,0-14.53-1.96-20.57-5.89-6.04-3.92-10.8-9.61-14.28-17.05-3.49-7.44-5.23-16.49-5.23-27.16s1.79-19.96,5.36-27.38c3.57-7.41,8.38-13.04,14.41-16.88,6.03-3.84,12.74-5.76,20.13-5.76,5.21,0,9.64.85,13.27,2.55,3.63,1.7,6.64,3.85,9.01,6.46,2.37,2.61,4.23,5.32,5.58,8.13h.7v-49.66h26.19v130.96h-25.84v-15.38h-.97c-1.35,2.81-3.24,5.52-5.67,8.13-2.43,2.61-5.45,4.75-9.05,6.42s-7.95,2.5-13.05,2.5ZM1682,203.63c4.51,0,8.35-1.22,11.51-3.65,3.16-2.43,5.59-5.81,7.29-10.15,1.7-4.34,2.55-9.43,2.55-15.29s-.83-10.94-2.5-15.25-4.1-7.65-7.29-10.02c-3.19-2.37-7.05-3.56-11.56-3.56s-8.25,1.2-11.38,3.6c-3.13,2.4-5.51,5.77-7.12,10.11-1.61,4.34-2.42,9.38-2.42,15.12s.8,10.88,2.42,15.25c1.61,4.37,3.98,7.76,7.12,10.2,3.13,2.43,6.93,3.65,11.38,3.65Z"/>
    <path class="cls-1" d="M1794.23,224.99c-9.79,0-18.27-2.09-25.44-6.28-7.18-4.19-12.71-10.05-16.61-17.58-3.9-7.53-5.84-16.27-5.84-26.24s1.95-18.88,5.84-26.41c3.9-7.53,9.43-13.39,16.61-17.58,7.18-4.19,15.66-6.28,25.44-6.28s18.18,2.1,25.36,6.28c7.18,4.19,12.71,10.05,16.61,17.58,3.9,7.53,5.84,16.33,5.84,26.41s-1.95,18.71-5.84,26.24c-3.9,7.53-9.43,13.39-16.61,17.58-7.18,4.19-15.63,6.28-25.36,6.28ZM1794.23,204.24c4.57,0,8.42-1.26,11.56-3.78,3.13-2.52,5.52-5.99,7.16-10.42,1.64-4.42,2.46-9.51,2.46-15.25s-.82-10.9-2.46-15.29c-1.64-4.39-4.03-7.85-7.16-10.37-3.13-2.52-6.99-3.78-11.56-3.78s-8.44,1.26-11.6,3.78c-3.16,2.52-5.55,5.98-7.16,10.37-1.61,4.39-2.42,9.49-2.42,15.29s.8,10.83,2.42,15.25c1.61,4.42,3.98,7.9,7.12,10.42,3.13,2.52,7.02,3.78,11.65,3.78Z"/>
    <path class="cls-1" d="M1883.62,223.05l-35.77-97.03h27.77l16.26,49.83c1.99,6.15,3.75,12.36,5.27,18.63,1.52,6.27,3.05,12.74,4.57,19.42h-5.71c1.52-6.68,3.03-13.14,4.53-19.38s3.21-12.47,5.14-18.68l16-49.83h27.51l-35.77,97.03h-29.79Z"/>
    <path class="cls-1" d="M1987.86,224.9c-6.21,0-11.78-1.08-16.7-3.25s-8.79-5.41-11.6-9.71-4.22-9.65-4.22-16.04c0-5.45,1-9.99,2.99-13.62,1.99-3.63,4.72-6.56,8.17-8.79,3.46-2.23,7.4-3.91,11.82-5.05,4.42-1.14,9.07-1.95,13.93-2.42,5.68-.58,10.25-1.13,13.71-1.63,3.46-.5,5.98-1.27,7.56-2.33s2.37-2.64,2.37-4.75v-.44c0-2.69-.6-4.99-1.8-6.9-1.2-1.9-2.94-3.37-5.23-4.39-2.29-1.02-5.07-1.54-8.35-1.54s-6.25.51-8.75,1.54c-2.49,1.03-4.51,2.4-6.06,4.13-1.55,1.73-2.65,3.68-3.3,5.84l-24.17-3.08c1.35-5.86,3.92-10.87,7.73-15.03,3.81-4.16,8.67-7.34,14.59-9.54,5.92-2.2,12.66-3.3,20.21-3.3,5.51,0,10.74.65,15.69,1.93,4.95,1.29,9.36,3.28,13.23,5.98,3.87,2.7,6.9,6.11,9.1,10.24s3.3,9.07,3.3,14.81v65.48h-25.05v-13.54h-.79c-1.58,3.05-3.68,5.73-6.28,8.04-2.61,2.32-5.73,4.12-9.36,5.41-3.63,1.29-7.88,1.93-12.74,1.93ZM1995.24,206.53c4.16,0,7.79-.82,10.9-2.46,3.11-1.64,5.54-3.84,7.29-6.59,1.76-2.75,2.64-5.86,2.64-9.32v-10.28c-.82.47-1.96.94-3.43,1.41-1.46.47-3.13.88-5.01,1.23-1.88.35-3.77.67-5.67.97-1.9.29-3.65.56-5.23.79-3.16.47-5.98,1.22-8.44,2.24-2.46,1.03-4.37,2.4-5.71,4.13-1.35,1.73-2.02,3.88-2.02,6.46s.63,4.54,1.89,6.24c1.26,1.7,2.99,2.99,5.19,3.87s4.73,1.32,7.6,1.32Z"/>
    <path class="cls-1" d="M2102.46,225.07c-7.91,0-14.93-1.16-21.05-3.47-6.12-2.31-11.1-5.67-14.94-10.06-3.84-4.39-6.25-9.67-7.25-15.82l24.7-3.34c1.11,4.45,3.25,7.82,6.42,10.11s7.38,3.43,12.66,3.43c4.98,0,8.91-.95,11.78-2.86,2.87-1.9,4.31-4.32,4.31-7.25,0-2.52-1.04-4.58-3.12-6.2-2.08-1.61-5.2-2.86-9.36-3.74l-16.79-3.34c-9.38-1.93-16.41-5.21-21.09-9.84-4.69-4.63-7.03-10.6-7.03-17.93,0-6.15,1.68-11.48,5.05-16,3.37-4.51,8.12-8,14.24-10.46,6.12-2.46,13.29-3.69,21.49-3.69s14.65,1.11,20.39,3.34c5.74,2.23,10.36,5.39,13.84,9.49,3.49,4.1,5.7,8.94,6.64,14.5l-23.47,3.25c-.82-3.46-2.65-6.28-5.49-8.48-2.84-2.2-6.64-3.3-11.38-3.3-4.39,0-8.01.92-10.85,2.77-2.84,1.85-4.26,4.23-4.26,7.16,0,2.46.97,4.53,2.9,6.2s5.1,2.94,9.49,3.82l17.58,3.52c9.49,1.88,16.54,4.98,21.14,9.32,4.6,4.34,6.9,9.99,6.9,16.96,0,6.39-1.85,11.97-5.54,16.74-3.69,4.78-8.8,8.5-15.34,11.16-6.53,2.67-14.05,4-22.54,4Z"/>
    <path class="cls-1" d="M2206.44,224.99c-9.73,0-18.16-2.09-25.31-6.28-7.15-4.19-12.67-10.05-16.57-17.58-3.9-7.53-5.84-16.27-5.84-26.24s1.95-18.81,5.84-26.37c3.9-7.56,9.42-13.43,16.57-17.62,7.15-4.19,15.59-6.28,25.31-6.28,5.92,0,11.35.78,16.3,2.33,4.95,1.55,9.33,3.79,13.14,6.72,3.81,2.93,6.93,6.46,9.36,10.59,2.43,4.13,4.06,8.78,4.88,13.93l-24.61,3.52c-.53-2.52-1.32-4.77-2.37-6.77-1.05-1.99-2.37-3.71-3.96-5.14-1.58-1.44-3.41-2.53-5.49-3.3-2.08-.76-4.41-1.14-6.99-1.14-4.63,0-8.51,1.23-11.65,3.69-3.13,2.46-5.52,5.9-7.16,10.33-1.64,4.42-2.46,9.57-2.46,15.42s.82,10.91,2.46,15.34c1.64,4.42,4.03,7.88,7.16,10.37,3.13,2.49,7.02,3.74,11.65,3.74,2.58,0,4.91-.4,6.99-1.19,2.08-.79,3.92-1.92,5.54-3.38,1.61-1.46,2.96-3.24,4.04-5.32,1.08-2.08,1.86-4.44,2.33-7.08l24.61,3.6c-.76,5.22-2.36,9.9-4.79,14.06-2.43,4.16-5.55,7.75-9.36,10.77-3.81,3.02-8.22,5.32-13.23,6.9s-10.47,2.37-16.39,2.37Z"/>
    <path class="cls-1" d="M2300.92,224.46c-6.74,0-12.63-1.46-17.67-4.39-5.04-2.93-8.94-7.16-11.69-12.7-2.75-5.54-4.13-12.14-4.13-19.82v-61.52h26.19v56.87c0,6.15,1.57,10.93,4.7,14.33,3.13,3.4,7.46,5.1,12.96,5.1,3.69,0,6.96-.79,9.8-2.37,2.84-1.58,5.07-3.91,6.68-6.99,1.61-3.08,2.42-6.81,2.42-11.21v-55.72h26.28v97.03h-25.05l-.35-24.43h2.2c-2.7,8.2-6.69,14.56-12,19.07-5.3,4.51-12.08,6.77-20.35,6.77Z"/>
    <path class="cls-1" d="M2404.19,92.09v130.96h-26.19V92.09h26.19Z"/>
    <path class="cls-1" d="M2453.41,224.9c-6.21,0-11.78-1.08-16.7-3.25s-8.79-5.41-11.6-9.71-4.22-9.65-4.22-16.04c0-5.45,1-9.99,2.99-13.62,1.99-3.63,4.72-6.56,8.17-8.79,3.46-2.23,7.4-3.91,11.82-5.05,4.42-1.14,9.07-1.95,13.93-2.42,5.68-.58,10.25-1.13,13.71-1.63,3.46-.5,5.98-1.27,7.56-2.33s2.37-2.64,2.37-4.75v-.44c0-2.69-.6-4.99-1.8-6.9-1.2-1.9-2.94-3.37-5.23-4.39-2.29-1.02-5.07-1.54-8.35-1.54s-6.25.51-8.75,1.54c-2.49,1.03-4.51,2.4-6.06,4.13-1.55,1.73-2.65,3.68-3.3,5.84l-24.17-3.08c1.35-5.86,3.92-10.87,7.73-15.03,3.81-4.16,8.67-7.34,14.59-9.54,5.92-2.2,12.66-3.3,20.21-3.3,5.51,0,10.74.65,15.69,1.93,4.95,1.29,9.36,3.28,13.23,5.98,3.87,2.7,6.9,6.11,9.1,10.24s3.3,9.07,3.3,14.81v65.48h-25.05v-13.54h-.79c-1.58,3.05-3.68,5.73-6.28,8.04-2.61,2.32-5.73,4.12-9.36,5.41-3.63,1.29-7.88,1.93-12.74,1.93ZM2460.79,206.53c4.16,0,7.79-.82,10.9-2.46,3.11-1.64,5.54-3.84,7.29-6.59,1.76-2.75,2.64-5.86,2.64-9.32v-10.28c-.82.47-1.96.94-3.43,1.41-1.46.47-3.13.88-5.01,1.23-1.88.35-3.77.67-5.67.97-1.9.29-3.65.56-5.23.79-3.16.47-5.98,1.22-8.44,2.24-2.46,1.03-4.37,2.4-5.71,4.13-1.35,1.73-2.02,3.88-2.02,6.46s.63,4.54,1.89,6.24c1.26,1.7,2.99,2.99,5.19,3.87s4.73,1.32,7.6,1.32Z"/>
    <path class="cls-1" d="M2529.17,223.05v-97.03h25.4v16.79h.88c1.76-5.92,4.69-10.38,8.79-13.4,4.1-3.02,8.96-4.53,14.59-4.53,1.41,0,2.87.06,4.39.18,1.52.12,2.84.29,3.96.53v23.2c-1.11-.35-2.77-.63-4.97-.83-2.2-.2-4.32-.31-6.37-.31-3.87,0-7.37.85-10.5,2.55-3.13,1.7-5.58,4.1-7.34,7.21-1.76,3.11-2.64,6.77-2.64,10.99v54.67h-26.19Z"/>
    <path class="cls-1" d="M758.26,439.05l47.72-130.96h18.98l48.08,130.96h-17.4l-27.69-77.96c-1.76-4.92-3.77-10.91-6.02-17.97-2.26-7.06-5-16.13-8.22-27.2h3.43c-3.22,11.13-5.99,20.29-8.31,27.47-2.32,7.18-4.26,13.08-5.84,17.71l-27.25,77.96h-17.49ZM782.43,402.49v-14.5h66.53v14.5h-66.53Z"/>
    <path class="cls-1" d="M923.41,441.16c-6.68,0-12.66-1.01-17.93-3.03s-9.61-5.02-13.01-9.01c-3.4-3.98-5.6-8.91-6.59-14.77l14.94-2.81c1.23,5.45,3.76,9.48,7.6,12.08,3.84,2.61,8.77,3.91,14.81,3.91,6.74,0,12.11-1.45,16.13-4.35,4.01-2.9,6.02-6.37,6.02-10.42,0-3.4-1.22-6.21-3.65-8.44-2.43-2.23-5.99-3.87-10.68-4.92l-16.08-3.87c-8.85-2.05-15.44-5.29-19.78-9.71-4.34-4.42-6.5-10.06-6.5-16.92,0-5.57,1.54-10.47,4.61-14.72,3.08-4.25,7.31-7.57,12.7-9.98,5.39-2.4,11.54-3.6,18.46-3.6s12.42,1.05,17.23,3.16c4.8,2.11,8.69,5.04,11.65,8.79,2.96,3.75,5.02,8.09,6.2,13.01l-14.33,2.9c-1.05-3.81-3.21-7.19-6.46-10.15-3.25-2.96-7.98-4.44-14.19-4.44-5.86,0-10.68,1.35-14.46,4.04-3.78,2.7-5.67,6.09-5.67,10.2,0,3.63,1.32,6.53,3.96,8.7,2.64,2.17,6.68,3.9,12.13,5.19l14.85,3.52c8.91,2.11,15.48,5.35,19.73,9.71,4.25,4.37,6.37,9.92,6.37,16.66,0,5.74-1.61,10.81-4.83,15.21-3.22,4.39-7.69,7.84-13.4,10.33s-12.32,3.74-19.82,3.74Z"/>
    <path class="cls-1" d="M1016.31,441.16c-6.68,0-12.66-1.01-17.93-3.03s-9.61-5.02-13.01-9.01c-3.4-3.98-5.6-8.91-6.59-14.77l14.94-2.81c1.23,5.45,3.76,9.48,7.6,12.08,3.84,2.61,8.77,3.91,14.81,3.91,6.74,0,12.11-1.45,16.13-4.35,4.01-2.9,6.02-6.37,6.02-10.42,0-3.4-1.22-6.21-3.65-8.44-2.43-2.23-5.99-3.87-10.68-4.92l-16.08-3.87c-8.85-2.05-15.44-5.29-19.78-9.71-4.34-4.42-6.5-10.06-6.5-16.92,0-5.57,1.54-10.47,4.61-14.72,3.08-4.25,7.31-7.57,12.7-9.98,5.39-2.4,11.54-3.6,18.46-3.6s12.42,1.05,17.23,3.16c4.8,2.11,8.69,5.04,11.65,8.79,2.96,3.75,5.02,8.09,6.2,13.01l-14.33,2.9c-1.05-3.81-3.21-7.19-6.46-10.15-3.25-2.96-7.98-4.44-14.19-4.44-5.86,0-10.68,1.35-14.46,4.04-3.78,2.7-5.67,6.09-5.67,10.2,0,3.63,1.32,6.53,3.96,8.7,2.64,2.17,6.68,3.9,12.13,5.19l14.85,3.52c8.91,2.11,15.48,5.35,19.73,9.71,4.25,4.37,6.37,9.92,6.37,16.66,0,5.74-1.61,10.81-4.83,15.21-3.22,4.39-7.69,7.84-13.4,10.33s-12.32,3.74-19.82,3.74Z"/>
    <path class="cls-1" d="M1115.72,441.16c-8.85,0-16.6-2.1-23.25-6.28-6.65-4.19-11.84-10.06-15.56-17.62-3.72-7.56-5.58-16.29-5.58-26.19s1.86-18.91,5.58-26.5c3.72-7.59,8.91-13.48,15.56-17.67,6.65-4.19,14.4-6.28,23.25-6.28s16.61,2.1,23.29,6.28c6.68,4.19,11.88,10.08,15.6,17.67,3.72,7.59,5.58,16.42,5.58,26.5s-1.86,18.63-5.58,26.19c-3.72,7.56-8.92,13.43-15.6,17.62s-14.44,6.28-23.29,6.28ZM1115.72,427.19c6.44,0,11.79-1.64,16.04-4.92,4.25-3.28,7.41-7.66,9.49-13.14,2.08-5.48,3.12-11.5,3.12-18.06s-1.04-12.7-3.12-18.24c-2.08-5.54-5.24-9.96-9.49-13.27-4.25-3.31-9.6-4.97-16.04-4.97s-11.69,1.66-15.91,4.97c-4.22,3.31-7.38,7.72-9.49,13.23-2.11,5.51-3.16,11.6-3.16,18.28s1.05,12.58,3.16,18.06c2.11,5.48,5.26,9.86,9.45,13.14,4.19,3.28,9.51,4.92,15.95,4.92Z"/>
    <path class="cls-1" d="M1221.62,441.16c-8.85,0-16.6-2.1-23.25-6.28-6.65-4.19-11.84-10.06-15.56-17.62-3.72-7.56-5.58-16.29-5.58-26.19s1.86-18.91,5.58-26.5c3.72-7.59,8.91-13.48,15.56-17.67,6.65-4.19,14.4-6.28,23.25-6.28,4.86,0,9.43.65,13.71,1.93,4.28,1.29,8.14,3.16,11.6,5.62,3.46,2.46,6.42,5.44,8.88,8.92,2.46,3.49,4.28,7.43,5.45,11.82l-15.21,3.34c-.65-2.58-1.69-4.94-3.12-7.08-1.44-2.14-3.18-4-5.23-5.58-2.05-1.58-4.42-2.81-7.12-3.69-2.7-.88-5.68-1.32-8.96-1.32-6.39,0-11.69,1.66-15.91,4.97-4.22,3.31-7.38,7.72-9.49,13.23-2.11,5.51-3.16,11.6-3.16,18.28s1.05,12.58,3.16,18.06c2.11,5.48,5.26,9.86,9.45,13.14,4.19,3.28,9.51,4.92,15.95,4.92,3.28,0,6.28-.44,9.01-1.32s5.14-2.14,7.25-3.78c2.11-1.64,3.87-3.59,5.27-5.84,1.41-2.25,2.46-4.7,3.16-7.34l15.21,3.34c-1.17,4.45-2.99,8.44-5.45,11.95s-5.44,6.55-8.92,9.1c-3.49,2.55-7.4,4.5-11.73,5.84-4.34,1.35-8.94,2.02-13.8,2.02Z"/>
    <path class="cls-1" d="M1290.71,325.5c-2.93,0-5.46-1.02-7.6-3.08-2.14-2.05-3.21-4.51-3.21-7.38s1.07-5.32,3.21-7.34c2.14-2.02,4.67-3.03,7.6-3.03s5.55,1.01,7.69,3.03c2.14,2.02,3.21,4.47,3.21,7.34s-1.07,5.33-3.21,7.38c-2.14,2.05-4.7,3.08-7.69,3.08ZM1282.88,439.05v-97.03h15.64v97.03h-15.64Z"/>
    <path class="cls-1" d="M1352.76,441.16c-6.21,0-11.82-1.14-16.83-3.43s-9-5.65-11.95-10.11c-2.96-4.45-4.44-9.87-4.44-16.26,0-5.57,1.1-10.08,3.3-13.54,2.2-3.46,5.13-6.2,8.79-8.22,3.66-2.02,7.73-3.53,12.22-4.53,4.48-1,9.01-1.79,13.58-2.37,5.92-.76,10.68-1.35,14.28-1.76,3.6-.41,6.27-1.1,8-2.07,1.73-.97,2.59-2.65,2.59-5.05v-.62c0-3.92-.78-7.29-2.33-10.11-1.55-2.81-3.85-4.97-6.9-6.46-3.05-1.49-6.83-2.24-11.34-2.24s-8.6.72-11.91,2.15c-3.31,1.44-6.01,3.28-8.09,5.54-2.08,2.26-3.53,4.64-4.35,7.16l-15.21-3.96c1.99-5.92,5.01-10.68,9.05-14.28s8.69-6.24,13.93-7.91c5.24-1.67,10.65-2.5,16.22-2.5,3.75,0,7.73.48,11.95,1.45s8.19,2.65,11.91,5.05c3.72,2.4,6.75,5.82,9.1,10.24,2.34,4.42,3.52,10.12,3.52,17.09v64.6h-15.38v-13.36h-.88c-1.11,2.29-2.87,4.63-5.27,7.03-2.4,2.4-5.54,4.41-9.4,6.02-3.87,1.61-8.58,2.42-14.15,2.42ZM1355.31,427.27c5.92,0,10.87-1.13,14.85-3.38,3.98-2.25,7-5.2,9.05-8.83,2.05-3.63,3.08-7.44,3.08-11.43v-13.18c-.65.7-1.98,1.35-4,1.93-2.02.59-4.37,1.11-7.03,1.58-2.67.47-5.3.87-7.91,1.19-2.61.32-4.82.6-6.64.83-3.75.47-7.27,1.27-10.55,2.42-3.28,1.14-5.92,2.8-7.91,4.97-1.99,2.17-2.99,5.1-2.99,8.79,0,3.28.86,6.05,2.59,8.31,1.73,2.26,4.09,3.96,7.08,5.1s6.44,1.71,10.37,1.71Z"/>
    <path class="cls-1" d="M1463.5,342.02v13.36h-50.71v-13.36h50.71ZM1427.9,318.2h15.64v96.06c0,4.16.86,7.19,2.59,9.1,1.73,1.91,4.64,2.86,8.75,2.86,1.05,0,2.36-.09,3.91-.26,1.55-.18,2.97-.35,4.26-.53l2.55,13.18c-1.64.47-3.47.82-5.49,1.05-2.02.23-4,.35-5.93.35-8.38,0-14.85-2.14-19.42-6.42-4.57-4.28-6.86-10.31-6.86-18.11v-97.29Z"/>
    <path class="cls-1" d="M1521.51,441.16c-9.38,0-17.46-2.11-24.26-6.33-6.8-4.22-12.01-10.08-15.64-17.58-3.63-7.5-5.45-16.2-5.45-26.1s1.8-18.66,5.41-26.28c3.6-7.62,8.7-13.56,15.29-17.84,6.59-4.28,14.25-6.42,22.98-6.42,5.51,0,10.81.92,15.91,2.77s9.67,4.75,13.71,8.7,7.24,9.04,9.58,15.25c2.34,6.21,3.52,13.62,3.52,22.24v6.06h-76.29v-13.18h67.76l-7.12,4.75c0-6.39-1.04-12.04-3.12-16.96-2.08-4.92-5.13-8.77-9.14-11.56-4.01-2.78-8.95-4.17-14.81-4.17s-10.8,1.41-14.99,4.22c-4.19,2.81-7.4,6.55-9.62,11.21-2.23,4.66-3.34,9.77-3.34,15.34v8.26c0,7.09,1.22,13.15,3.65,18.19,2.43,5.04,5.89,8.88,10.37,11.51s9.71,3.96,15.69,3.96c3.98,0,7.57-.58,10.77-1.76,3.19-1.17,5.93-2.9,8.22-5.19s4.01-5.1,5.19-8.44l15.21,3.34c-1.46,5.1-4.01,9.61-7.65,13.54-3.63,3.93-8.16,6.99-13.58,9.18-5.42,2.2-11.5,3.3-18.24,3.3Z"/>
    <path class="cls-1" d="M1617.13,441.16c-6.68,0-12.66-1.01-17.93-3.03s-9.61-5.02-13.01-9.01c-3.4-3.98-5.6-8.91-6.59-14.77l14.94-2.81c1.23,5.45,3.76,9.48,7.6,12.08,3.84,2.61,8.77,3.91,14.81,3.91,6.74,0,12.11-1.45,16.13-4.35,4.01-2.9,6.02-6.37,6.02-10.42,0-3.4-1.22-6.21-3.65-8.44-2.43-2.23-5.99-3.87-10.68-4.92l-16.08-3.87c-8.85-2.05-15.44-5.29-19.78-9.71-4.34-4.42-6.5-10.06-6.5-16.92,0-5.57,1.54-10.47,4.61-14.72,3.08-4.25,7.31-7.57,12.7-9.98,5.39-2.4,11.54-3.6,18.46-3.6s12.42,1.05,17.23,3.16c4.8,2.11,8.69,5.04,11.65,8.79,2.96,3.75,5.02,8.09,6.2,13.01l-14.33,2.9c-1.05-3.81-3.21-7.19-6.46-10.15-3.25-2.96-7.98-4.44-14.19-4.44-5.86,0-10.68,1.35-14.46,4.04-3.78,2.7-5.67,6.09-5.67,10.2,0,3.63,1.32,6.53,3.96,8.7,2.64,2.17,6.68,3.9,12.13,5.19l14.85,3.52c8.91,2.11,15.48,5.35,19.73,9.71,4.25,4.37,6.37,9.92,6.37,16.66,0,5.74-1.61,10.81-4.83,15.21-3.22,4.39-7.69,7.84-13.4,10.33s-12.32,3.74-19.82,3.74Z"/>
  </g>
  <g>
    <path class="cls-2" d="M348.08,449.2c-8.17,0-16.35-.65-24.5-1.95-19.92-3.18-38.8-10.11-56.14-20.59-17.33-10.48-32.24-23.98-44.32-40.14-12.51-16.74-21.4-35.58-26.44-56.02-4.23-17.14-5.53-34.67-3.87-52.1,1.6-16.85,5.93-33.26,12.86-48.77,6.86-15.35,16.08-29.41,27.41-41.81,11.52-12.61,24.93-23.15,39.85-31.35,8.54-4.69,19.28-1.57,23.97,6.97,4.69,8.54,1.57,19.28-6.97,23.97-47.79,26.26-72.04,81.62-58.97,134.64,7.71,31.3,27.16,57.72,54.74,74.4,19.08,11.53,40.48,17.45,62.22,17.45,9.69,0,19.45-1.18,29.1-3.55,31.3-7.71,57.72-27.16,74.4-54.74,16.68-27.59,21.61-60.02,13.9-91.32-13.07-53.02-60.27-90.77-114.79-91.81-9.75-.19-17.5-8.24-17.31-17.99.18-9.63,8.05-17.32,17.64-17.32.11,0,.23,0,.34,0,17.02.32,33.8,3.43,49.86,9.24,15.79,5.71,30.5,13.88,43.7,24.28,13.34,10.51,24.8,23.03,34.05,37.21,9.57,14.66,16.56,30.79,20.79,47.93,5.04,20.44,5.92,41.26,2.62,61.89-3.18,19.92-10.11,38.8-20.59,56.14-10.48,17.33-23.98,32.24-40.14,44.32-16.74,12.51-35.58,21.4-56.02,26.44-12.37,3.05-24.88,4.57-37.4,4.58Z"/>
    <path class="cls-2" d="M347.92,518.35c-24.44,0-48.51-3.94-71.73-11.76-28.58-9.62-54.6-24.72-77.34-44.87-22.75-20.15-40.87-44.16-53.87-71.37-12.55-26.27-19.81-54.39-21.57-83.57-1.77-29.18,2.05-57.97,11.34-85.56,9.62-28.58,24.72-54.6,44.87-77.34,18.01-20.33,39.21-37.04,63.01-49.66,22.99-12.19,47.77-20.24,73.64-23.93,25.68-3.66,51.57-2.9,76.94,2.25,25.95,5.28,50.52,14.99,73.02,28.89,8.3,5.12,10.87,16,5.75,24.29-5.12,8.3-16,10.87-24.29,5.75-78.63-48.54-180.26-33.47-241.64,35.82-33.63,37.96-50.46,86.74-47.4,137.36,3.06,50.62,25.65,97.02,63.61,130.65,36.07,31.96,81.01,47.66,125.79,47.66,52.49,0,104.75-21.58,142.22-63.87,61.39-69.29,64.09-171.99,6.43-244.2-6.08-7.62-4.84-18.73,2.78-24.81,7.62-6.08,18.73-4.84,24.81,2.78,16.5,20.67,29.11,43.89,37.48,69.01,8.18,24.56,12.05,50.17,11.51,76.1-.54,26.13-5.55,51.69-14.88,75.98-9.66,25.15-23.69,48.21-41.7,68.54-20.15,22.75-44.16,40.87-71.37,53.87-26.27,12.55-54.39,19.81-83.57,21.57-4.62.28-9.23.42-13.83.42Z"/>
    <path class="cls-2" d="M348.16,586.37c-39.73,0-78.27-7.78-114.57-23.14-17.44-7.38-34.27-16.51-50-27.14-15.58-10.53-30.23-22.61-43.55-35.93s-25.4-27.97-35.93-43.55c-10.63-15.74-19.76-32.56-27.14-50-15.35-36.3-23.14-74.84-23.14-114.57,0-36.58,6.63-72.29,19.72-106.13,12.64-32.68,30.88-62.61,54.21-88.95C175.02,43.61,239.79,9.22,310.14.15c9.67-1.25,18.52,5.58,19.77,15.25,1.25,9.67-5.58,18.52-15.25,19.77-128.57,16.59-225.53,127.02-225.53,256.88,0,142.83,116.2,259.02,259.02,259.02s259.02-116.2,259.02-259.02c0-129.86-96.96-240.29-225.53-256.88-9.67-1.25-16.5-10.1-15.25-19.77,1.25-9.67,10.1-16.5,19.77-15.25,70.35,9.08,135.13,43.46,182.38,96.81,23.33,26.34,41.57,56.27,54.21,88.95,13.08,33.84,19.72,69.54,19.72,106.13,0,39.73-7.78,78.27-23.14,114.57-7.38,17.44-16.51,34.27-27.14,50-10.53,15.58-22.62,30.23-35.93,43.55-13.31,13.31-27.97,25.4-43.55,35.93-15.74,10.63-32.56,19.76-50,27.14-36.3,15.35-74.84,23.14-114.57,23.14Z"/>
  </g>
</svg>